# xmcd
#
# Track frame offsets: 
#        150
#        16100
#        32255
#        51230
#        66317
#        83387
#        100767
#        117507
#        135007
#        152122
#        168950
#
# Disc length: 2496 seconds
#
# Revision: 1
# Processed by: cddbd v1.5.2PL0 Copyright (c) Steve Scherf et al.
# Submitted via: ExactAudioCopyFreeDBPlugin 1.0
#
DISCID=7609be0b
DTITLE=3 of Hearts - 3 Of Hearts
DYEAR=2001
DGENRE=Country
TTITLE0=Love is Enough
TTITLE1=It Happened to me
TTITLE2=6, 8, 12
TTITLE3=Over the Edge
TTITLE4=Sugar and Daisies
TTITLE5=Arizona Rain
TTITLE6=The Hard Way
TTITLE7=Wash Away This Kiss
TTITLE8=You Break Me
TTITLE9=Is it Love
TTITLE10=Baby That's The Way
EXTD=
EXTT0=
EXTT1=
EXTT2=
EXTT3=
EXTT4=
EXTT5=
EXTT6=
EXTT7=
EXTT8=
EXTT9=
EXTT10=
PLAYORDER=
